<svg id="visual" viewBox="0 0 900 600" width="900" height="600" xmlns="http://www.w3.org/2000/svg" xmlns:xlink="http://www.w3.org/1999/xlink" version="1.1"><rect x="0" y="0" width="900" height="600" fill="#202020"></rect><path d="M0 353L21.5 362.8C43 372.7 86 392.3 128.8 406C171.7 419.7 214.3 427.3 257.2 430.7C300 434 343 433 385.8 427.7C428.7 422.3 471.3 412.7 514.2 403C557 393.3 600 383.7 642.8 383.7C685.7 383.7 728.3 393.3 771.2 396.5C814 399.7 857 396.3 878.5 394.7L900 393L900 601L878.5 601C857 601 814 601 771.2 601C728.3 601 685.7 601 642.8 601C600 601 557 601 514.2 601C471.3 601 428.7 601 385.8 601C343 601 300 601 257.2 601C214.3 601 171.7 601 128.8 601C86 601 43 601 21.5 601L0 601Z" fill="#202020"></path><path d="M0 477L21.5 465.5C43 454 86 431 128.8 424C171.7 417 214.3 426 257.2 431.2C300 436.3 343 437.7 385.8 444.5C428.7 451.3 471.3 463.7 514.2 465.5C557 467.3 600 458.7 642.8 448.5C685.7 438.3 728.3 426.7 771.2 424.5C814 422.3 857 429.7 878.5 433.3L900 437L900 601L878.5 601C857 601 814 601 771.2 601C728.3 601 685.7 601 642.8 601C600 601 557 601 514.2 601C471.3 601 428.7 601 385.8 601C343 601 300 601 257.2 601C214.3 601 171.7 601 128.8 601C86 601 43 601 21.5 601L0 601Z" fill="#282828"></path><path d="M0 464L21.5 466.2C43 468.3 86 472.7 128.8 479.2C171.7 485.7 214.3 494.3 257.2 491.3C300 488.3 343 473.7 385.8 466.8C428.7 460 471.3 461 514.2 458C557 455 600 448 642.8 451.8C685.7 455.7 728.3 470.3 771.2 476C814 481.7 857 478.3 878.5 476.7L900 475L900 601L878.5 601C857 601 814 601 771.2 601C728.3 601 685.7 601 642.8 601C600 601 557 601 514.2 601C471.3 601 428.7 601 385.8 601C343 601 300 601 257.2 601C214.3 601 171.7 601 128.8 601C86 601 43 601 21.5 601L0 601Z" fill="#303030"></path><path d="M0 541L21.5 531C43 521 86 501 128.8 500.5C171.7 500 214.3 519 257.2 522.5C300 526 343 514 385.8 511.5C428.7 509 471.3 516 514.2 512.7C557 509.3 600 495.7 642.8 497C685.7 498.3 728.3 514.7 771.2 521.7C814 528.7 857 526.3 878.5 525.2L900 524L900 601L878.5 601C857 601 814 601 771.2 601C728.3 601 685.7 601 642.8 601C600 601 557 601 514.2 601C471.3 601 428.7 601 385.8 601C343 601 300 601 257.2 601C214.3 601 171.7 601 128.8 601C86 601 43 601 21.5 601L0 601Z" fill="#383838"></path><path d="M0 567L21.5 560.8C43 554.7 86 542.3 128.8 540.2C171.7 538 214.3 546 257.2 548.7C300 551.3 343 548.7 385.8 551.2C428.7 553.7 471.3 561.3 514.2 564.5C557 567.7 600 566.3 642.8 558.8C685.7 551.3 728.3 537.7 771.2 538.7C814 539.7 857 555.3 878.5 563.2L900 571L900 601L878.5 601C857 601 814 601 771.2 601C728.3 601 685.7 601 642.8 601C600 601 557 601 514.2 601C471.3 601 428.7 601 385.8 601C343 601 300 601 257.2 601C214.3 601 171.7 601 128.8 601C86 601 43 601 21.5 601L0 601Z" fill="#404040"></path></svg>