<svg id="visual" viewBox="0 0 900 600" width="900" height="600" xmlns="http://www.w3.org/2000/svg" xmlns:xlink="http://www.w3.org/1999/xlink" version="1.1"><path d="M0 439L16.7 432.5C33.3 426 66.7 413 100 416.8C133.3 420.7 166.7 441.3 200 446C233.3 450.7 266.7 439.3 300 432.2C333.3 425 366.7 422 400 429C433.3 436 466.7 453 500 450.8C533.3 448.7 566.7 427.3 600 426.2C633.3 425 666.7 444 700 454.3C733.3 464.7 766.7 466.3 800 464.3C833.3 462.3 866.7 456.7 883.3 453.8L900 451L900 601L883.3 601C866.7 601 833.3 601 800 601C766.7 601 733.3 601 700 601C666.7 601 633.3 601 600 601C566.7 601 533.3 601 500 601C466.7 601 433.3 601 400 601C366.7 601 333.3 601 300 601C266.7 601 233.3 601 200 601C166.7 601 133.3 601 100 601C66.7 601 33.3 601 16.7 601L0 601Z" fill="#909090"></path><path d="M0 492L16.7 485.2C33.3 478.3 66.7 464.7 100 463.2C133.3 461.7 166.7 472.3 200 469.5C233.3 466.7 266.7 450.3 300 448.2C333.3 446 366.7 458 400 462.5C433.3 467 466.7 464 500 466.3C533.3 468.7 566.7 476.3 600 477.3C633.3 478.3 666.7 472.7 700 467.8C733.3 463 766.7 459 800 455.2C833.3 451.3 866.7 447.7 883.3 445.8L900 444L900 601L883.3 601C866.7 601 833.3 601 800 601C766.7 601 733.3 601 700 601C666.7 601 633.3 601 600 601C566.7 601 533.3 601 500 601C466.7 601 433.3 601 400 601C366.7 601 333.3 601 300 601C266.7 601 233.3 601 200 601C166.7 601 133.3 601 100 601C66.7 601 33.3 601 16.7 601L0 601Z" fill="#808080"></path><path d="M0 490L16.7 485.8C33.3 481.7 66.7 473.3 100 473.5C133.3 473.7 166.7 482.3 200 487.8C233.3 493.3 266.7 495.7 300 492C333.3 488.3 366.7 478.7 400 477.2C433.3 475.7 466.7 482.3 500 482C533.3 481.7 566.7 474.3 600 471.2C633.3 468 666.7 469 700 473.2C733.3 477.3 766.7 484.7 800 483.5C833.3 482.3 866.7 472.7 883.3 467.8L900 463L900 601L883.3 601C866.7 601 833.3 601 800 601C766.7 601 733.3 601 700 601C666.7 601 633.3 601 600 601C566.7 601 533.3 601 500 601C466.7 601 433.3 601 400 601C366.7 601 333.3 601 300 601C266.7 601 233.3 601 200 601C166.7 601 133.3 601 100 601C66.7 601 33.3 601 16.7 601L0 601Z" fill="#707070"></path><path d="M0 508L16.7 513.7C33.3 519.3 66.7 530.7 100 537.7C133.3 544.7 166.7 547.3 200 544.5C233.3 541.7 266.7 533.3 300 534C333.3 534.7 366.7 544.3 400 542C433.3 539.7 466.7 525.3 500 522.2C533.3 519 566.7 527 600 525.7C633.3 524.3 666.7 513.7 700 516.7C733.3 519.7 766.7 536.3 800 544.5C833.3 552.7 866.7 552.3 883.3 552.2L900 552L900 601L883.3 601C866.7 601 833.3 601 800 601C766.7 601 733.3 601 700 601C666.7 601 633.3 601 600 601C566.7 601 533.3 601 500 601C466.7 601 433.3 601 400 601C366.7 601 333.3 601 300 601C266.7 601 233.3 601 200 601C166.7 601 133.3 601 100 601C66.7 601 33.3 601 16.7 601L0 601Z" fill="#616161"></path><path d="M0 565L16.7 561.7C33.3 558.3 66.7 551.7 100 547.8C133.3 544 166.7 543 200 545.8C233.3 548.7 266.7 555.3 300 559.3C333.3 563.3 366.7 564.7 400 561.5C433.3 558.3 466.7 550.7 500 547.7C533.3 544.7 566.7 546.3 600 549.5C633.3 552.7 666.7 557.3 700 559.8C733.3 562.3 766.7 562.7 800 565.3C833.3 568 866.7 573 883.3 575.5L900 578L900 601L883.3 601C866.7 601 833.3 601 800 601C766.7 601 733.3 601 700 601C666.7 601 633.3 601 600 601C566.7 601 533.3 601 500 601C466.7 601 433.3 601 400 601C366.7 601 333.3 601 300 601C266.7 601 233.3 601 200 601C166.7 601 133.3 601 100 601C66.7 601 33.3 601 16.7 601L0 601Z" fill="#525252"></path></svg>