<svg id="visual" viewBox="0 0 900 600" width="900" height="600" xmlns="http://www.w3.org/2000/svg" xmlns:xlink="http://www.w3.org/1999/xlink" version="1.1"><path d="M0 500L25 476.3C50 452.7 100 405.3 150 388.2C200 371 250 384 300 391.5C350 399 400 401 450 372.5C500 344 550 285 600 257.7C650 230.3 700 234.7 750 260.8C800 287 850 335 875 359L900 383L900 601L875 601C850 601 800 601 750 601C700 601 650 601 600 601C550 601 500 601 450 601C400 601 350 601 300 601C250 601 200 601 150 601C100 601 50 601 25 601L0 601Z" fill="#bbb" stroke-linecap="round" stroke-linejoin="miter"></path></svg>